<svg xmlns="http://www.w3.org/2000/svg" viewBox="0 0 200 200">
  <defs>
    <radialGradient id="globe" cx="30%" cy="30%" r="80%">
      <stop offset="0%" stop-color="#4fd1ff" />
      <stop offset="55%" stop-color="#1f7ed0" />
      <stop offset="100%" stop-color="#0b4a86" />
    </radialGradient>
    <linearGradient id="swoosh" x1="0%" y1="0%" x2="100%" y2="0%">
      <stop offset="0%" stop-color="#1bc78b" />
      <stop offset="100%" stop-color="#2e8cff" />
    </linearGradient>
  </defs>
  <circle cx="100" cy="100" r="70" fill="url(#globe)" />
  <path
    d="M70 72c10-12 28-18 44-16 7 1 16 4 21 9-8-2-16-1-22 2-8 4-16 11-20 19-5 9-6 20-12 28-6 7-15 10-24 8-7-2-13-7-16-13 9 4 19 3 27-3 8-5 12-14 14-24 2-5 3-7 8-10-7 2-14 6-20 11"
    fill="#e2f4ff"
    opacity="0.85"
  />
  <path
    d="M35 116c24 22 62 30 98 22 22-5 42-15 58-31"
    fill="none"
    stroke="url(#swoosh)"
    stroke-width="14"
    stroke-linecap="round"
  />
  <path
    d="M38 128c25 18 61 25 95 18 23-5 44-16 61-32"
    fill="none"
    stroke="#e9f4ff"
    stroke-width="10"
    stroke-linecap="round"
    opacity="0.9"
  />
  <g transform="translate(118 70)">
    <path
      d="M0 28l55-24c3-1 6 2 4 5l-8 9 13 8c2 1 2 4-1 5l-22 7-4 14c-1 3-4 3-5 0l-8-12-16 6c-3 1-6-2-4-5l6-13-12-5c-3-1-2-5 1-5z"
      fill="#f7fbff"
      stroke="#0b4a86"
      stroke-width="2"
    />
  </g>
  <g transform="translate(35 40)">
    <path d="M26 0c9 0 16 7 16 16 0 13-16 29-16 29S10 29 10 16C10 7 17 0 26 0z" fill="#f47b20" />
    <polygon points="26,8 30,16 39,17 32,23 34,32 26,27 18,32 20,23 13,17 22,16" fill="#fff" />
  </g>
</svg>
